<?xml version="1.0" standalone="no"?>
<!DOCTYPE svg PUBLIC "-//W3C//DTD SVG 20010904//EN"
 "http://www.w3.org/TR/2001/REC-SVG-20010904/DTD/svg10.dtd">
<svg version="1.0" xmlns="http://www.w3.org/2000/svg"
 width="1169.000000pt" height="1169.000000pt" viewBox="0 0 1169.000000 1169.000000"
 preserveAspectRatio="xMidYMid meet">
<metadata>
Created by potrace 1.14, written by Peter Selinger 2001-2017
</metadata>
<g transform="translate(0.000000,1169.000000) scale(0.100000,-0.100000)"
fill="#000000" stroke="none">
<path d="M5548 11685 c-2 -2 -50 -6 -108 -10 -155 -11 -250 -20 -320 -30 -14
-2 -61 -9 -105 -15 -101 -14 -181 -28 -330 -55 -63 -12 -215 -49 -340 -82 -71
-19 -143 -39 -160 -43 -70 -17 -352 -116 -501 -175 -524 -208 -1001 -483
-1472 -850 -7 -5 -18 -15 -25 -21 -7 -6 -40 -33 -72 -59 -33 -27 -71 -59 -85
-71 -14 -12 -50 -44 -80 -70 -78 -68 -425 -417 -485 -488 -28 -32 -55 -64 -60
-70 -69 -72 -313 -394 -400 -526 -28 -41 -54 -79 -58 -85 -18 -22 -146 -234
-182 -300 -21 -38 -41 -74 -46 -80 -12 -17 -184 -365 -219 -445 -53 -122 -56
-130 -105 -254 -71 -181 -149 -425 -200 -621 -45 -172 -51 -193 -61 -245 -3
-13 -12 -56 -20 -95 -8 -38 -17 -86 -20 -105 -3 -19 -7 -42 -9 -50 -3 -8 -7
-35 -10 -60 -3 -25 -7 -56 -10 -70 -13 -86 -16 -109 -20 -140 -3 -19 -7 -62
-10 -95 -3 -33 -8 -69 -10 -80 -26 -129 -26 -929 -1 -1085 2 -14 7 -59 11
-100 3 -41 8 -82 10 -90 2 -8 6 -37 10 -65 3 -27 8 -63 10 -80 17 -108 25
-156 35 -205 6 -25 12 -56 14 -70 4 -26 34 -162 42 -193 2 -9 6 -27 9 -40 7
-34 26 -107 40 -157 7 -25 23 -79 35 -120 66 -227 207 -609 276 -743 8 -16 14
-35 14 -43 0 -8 5 -14 10 -14 6 0 10 -5 10 -11 0 -19 150 -311 235 -459 71
-123 274 -439 299 -466 6 -6 18 -21 26 -34 69 -101 271 -353 383 -478 89 -98
388 -395 477 -473 47 -41 87 -76 90 -79 3 -3 50 -42 105 -86 639 -512 1366
-886 2115 -1090 287 -78 644 -150 846 -169 43 -4 143 -16 174 -20 134 -19 788
-27 950 -12 41 4 102 10 135 13 33 3 76 7 95 9 19 2 60 7 90 10 30 3 80 10
110 15 30 5 73 11 95 15 34 4 154 26 220 39 39 8 250 57 310 72 33 8 67 16 76
19 103 24 452 141 614 205 382 152 754 347 1090 570 52 35 279 196 305 217 74
59 247 199 256 208 6 5 40 35 75 65 104 89 428 416 535 540 253 294 487 625
670 946 101 177 294 569 294 595 0 5 4 17 10 27 35 62 157 400 224 622 53 178
129 503 150 645 4 22 13 81 21 130 12 80 22 159 40 330 15 141 19 267 19 545
0 340 -6 449 -39 715 -9 71 -17 132 -20 154 -2 13 -8 45 -12 70 -4 25 -8 48
-8 51 -1 3 -5 23 -9 45 -41 218 -92 436 -142 605 -30 99 -101 316 -114 345 -4
11 -21 54 -36 95 -95 261 -278 640 -442 915 -38 65 -262 407 -271 415 -4 3
-33 41 -65 85 -69 93 -186 239 -241 300 -11 13 -45 51 -75 86 -68 80 -405 418
-485 486 -33 29 -71 61 -85 73 -14 12 -45 39 -70 59 -25 20 -47 38 -50 41 -3
3 -48 38 -100 78 -52 39 -100 76 -106 81 -71 59 -392 268 -545 357 -256 147
-685 350 -854 404 -22 7 -44 16 -50 20 -14 10 -332 114 -430 140 -214 57 -311
80 -495 115 -143 27 -147 28 -255 44 -134 20 -266 35 -425 47 -64 5 -707 13
-712 9z"/>
</g>
</svg>
